<svg xmlns:xlink="http://www.w3.org/1999/xlink" xmlns="http://www.w3.org/2000/svg" viewBox="0 0 32 32" width="32"  height="32" ><path d="M0.8 19.2c-0.191 0-0.383-0.068-0.536-0.207-0.328-0.296-0.353-0.802-0.056-1.13l14.127-15.614c0.439-0.485 1.031-0.753 1.667-0.753 0 0 0 0 0 0 0.636 0 1.227 0.267 1.667 0.753l14.127 15.614c0.296 0.328 0.271 0.834-0.056 1.13s-0.834 0.271-1.13-0.056l-14.127-15.614c-0.132-0.146-0.302-0.226-0.48-0.226s-0.348 0.080-0.48 0.226l-14.127 15.614c-0.158 0.175-0.375 0.263-0.594 0.263zM24.8 32h-6.4c-0.442 0-0.8-0.358-0.8-0.8v-5.6h-3.2v5.6c0 0.442-0.358 0.8-0.8 0.8h-6.4c-1.323 0-2.4-1.077-2.4-2.4v-12.8c0-0.442 0.358-0.8 0.8-0.8s0.8 0.358 0.8 0.8v12.8c0 0.441 0.359 0.8 0.8 0.8h5.6v-5.6c0-0.442 0.358-0.8 0.8-0.8h4.8c0.442 0 0.8 0.358 0.8 0.8v5.6h5.6c0.441 0 0.8-0.359 0.8-0.8v-12.8c0-0.442 0.358-0.8 0.8-0.8s0.8 0.358 0.8 0.8v12.8c0 1.323-1.077 2.4-2.4 2.4z" fill="#555555"></path></svg>